nColumns=19
nRows=103
DataType=double
version=3
OpenSimVersion=4.1
endheader
time	ground_force_calcn_r_vx	ground_force_calcn_r_vy	ground_force_calcn_r_vz	ground_force_calcn_r_px	ground_force_calcn_r_py	ground_force_calcn_r_pz	ground_force_calcn_r_mx	ground_force_calcn_r_my	ground_force_calcn_r_mz	ground_force_calcn_l_vx	ground_force_calcn_l_vy	ground_force_calcn_l_vz	ground_force_calcn_l_px	ground_force_calcn_l_py	ground_force_calcn_l_pz	ground_force_calcn_l_mx	ground_force_calcn_l_my	ground_force_calcn_l_mz
2.7	39.1638	48.1702	6.74902	0.377809	0	-0.250216	-0.800587	-0.984696	-0.137964	0	0	0	0	0	0	0	0	0
2.70833	16.8573	21.6276	5.08392	0.415346	0	-0.185868	-0.814583	-1.04509	-0.245667	0	0	0	0	0	0	0	0	0
2.71667	0	0	0	0	0	0	0	0	0	0	0	0	0	0	0	0	0	0
2.725	0	0	0	0	0	0	0	0	0	0	0	0	0	0	0	0	0	0
2.73333	0	0	0	0	0	0	0	0	0	0	0	0	0	0	0	0	0	0
2.74167	0	0	0	0	0	0	0	0	0	0	0	0	0	0	0	0	0	0
2.75	0	0	0	0	0	0	0	0	0	0	0	0	0	0	0	0	0	0
2.75833	0	0	0	0	0	0	0	0	0	0	0	0	0	0	0	0	0	0
2.76667	0	0	0	0	0	0	0	0	0	0	0	0	0	0	0	0	0	0
2.775	0	0	0	0	0	0	0	0	0	0	0	0	0	0	0	0	0	0
2.78333	0	0	0	0	0	0	0	0	0	-3.4398	15.8433	-2.20792	0.988593	0	-0.261533	0.0933347	-0.429887	0.0599092
2.79167	0	0	0	0	0	0	0	0	0	-16.1	46.4773	-4.21441	0.933146	0	-0.385479	0.245111	-0.707585	0.0641615
2.8	0	0	0	0	0	0	0	0	0	-45.5015	139.943	-3.70207	0.911527	0	-0.427915	0.448138	-1.37828	0.0364612
2.80833	0	0	0	0	0	0	0	0	0	-94.5837	351.298	3.64213	0.912951	0	-0.436086	0.619333	-2.30029	-0.0238486
2.81667	0	0	0	0	0	0	0	0	0	-148.342	684.744	19.6823	0.917214	0	-0.431291	0.686428	-3.16854	-0.0910765
2.825	0	0	0	0	0	0	0	0	0	-181.737	1024.84	37.0034	0.914584	0	-0.423417	0.648224	-3.65543	-0.131985
2.83333	0	0	0	0	0	0	0	0	0	-192.471	1239.79	40.2841	0.901606	0	-0.419211	0.56381	-3.63176	-0.118005
2.84167	0	0	0	0	0	0	0	0	0	-204.135	1332.71	23.9294	0.879368	0	-0.422186	0.507126	-3.31082	-0.0594472
2.85	0	0	0	0	0	0	0	0	0	-225.766	1390.42	5.88418	0.853167	0	-0.42872	0.515305	-3.1736	-0.0134305
2.85833	0	0	0	0	0	0	0	0	0	-240.102	1473.34	10.8779	0.826483	0	-0.431057	0.597163	-3.66438	-0.0270547
2.86667	0	0	0	0	0	0	0	0	0	-224.552	1575.88	40.2927	0.79762	0	-0.428639	0.695106	-4.87815	-0.124727
2.875	0	0	0	0	0	0	0	0	0	-173.069	1657.18	70.1756	0.765172	0	-0.427277	0.678028	-6.4923	-0.274925
2.88333	0	0	0	0	0	0	0	0	0	-99.2537	1689	80.0791	0.730072	0	-0.42997	0.468431	-7.97128	-0.377935
2.89167	0	0	0	0	0	0	0	0	0	-21.7597	1672.64	73.2053	0.694413	0	-0.434198	0.115182	-8.85384	-0.387501
2.9	0	0	0	0	0	0	0	0	0	45.9231	1621.67	64.5881	0.660494	0	-0.436038	-0.252308	-8.9097	-0.354856
2.90833	0	0	0	0	0	0	0	0	0	104.211	1536.92	59.3996	0.628304	0	-0.435035	-0.550878	-8.12449	-0.313998
2.91667	0	0	0	0	0	0	0	0	0	161.122	1409.47	50.799	0.594666	0	-0.433764	-0.756247	-6.61555	-0.238432
2.925	0	0	0	0	0	0	0	0	0	212.513	1238.65	33.9165	0.558038	0	-0.433842	-0.792076	-4.6167	-0.126413
2.93333	0	0	0	0	0	0	0	0	0	243.533	1036.17	13.0753	0.522466	0	-0.434068	-0.582371	-2.47784	-0.0312675
2.94167	0	0	0	0	0	0	0	0	0	246.295	817.398	-4.50329	0.492655	0	-0.432532	-0.172433	-0.572267	0.00315279
2.95	0	0	0	0	0	0	0	0	0	226.421	600.103	-16.0704	0.468581	0	-0.428493	0.306757	0.813026	-0.0217723
2.95833	0	0	0	0	0	0	0	0	0	190.544	403.473	-22.7553	0.447831	0	-0.422622	0.717982	1.52031	-0.0857434
2.96667	0	0	0	0	0	0	0	0	0	141.422	242.406	-25.2639	0.427348	0	-0.4172	0.915464	1.56916	-0.16354
2.975	0	0	0	0	0	0	0	0	0	87.0473	126.603	-23.1015	0.402768	0	-0.413756	0.799431	1.16271	-0.212161
2.98333	0	0	0	0	0	0	0	0	0	42.8252	57.9784	-17.0684	0.381911	0	-0.403237	0.409841	0.554859	-0.163347
2.99167	0	0	0	0	0	0	0	0	0	18.7911	27.131	-10.0361	0.435856	0	-0.349557	-0.0872435	-0.125964	0.0465958
3	0	0	0	0	0	0	0	0	0	9.45695	16.1531	-4.72255	0.621299	0	-0.255459	-0.553103	-0.944737	0.276205
3.00833	0	0	0	0	0	0	0	0	0	3.9034	10.6764	-1.88469	0.862965	0	-0.164327	-0.733282	-2.00564	0.354052
3.01667	0	0	0	0	0	0	0	0	0	0	0	0	0	0	0	0	0	0
3.025	0	0	0	0	0	0	0	0	0	0	0	0	0	0	0	0	0	0
3.03333	0	0	0	0	0	0	0	0	0	0	0	0	0	0	0	0	0	0
3.04167	0	0	0	0	0	0	0	0	0	0	0	0	0	0	0	0	0	0
3.05	0	0	0	0	0	0	0	0	0	0	0	0	0	0	0	0	0	0
3.05833	0	0	0	0	0	0	0	0	0	0	0	0	0	0	0	0	0	0
3.06667	0	0	0	0	0	0	0	0	0	0	0	0	0	0	0	0	0	0
3.075	-3.96618	19.1429	-2.55289	0.803681	0	-0.182995	-0.284459	1.37295	-0.183096	0	0	0	0	0	0	0	0	0
3.08333	-16.4417	46.3269	-7.023	0.838409	0	-0.288977	-0.655028	1.84564	-0.279792	0	0	0	0	0	0	0	0	0
3.09167	-45.1478	122.575	-12.9184	0.876135	0	-0.328138	-0.680935	1.84871	-0.194839	0	0	0	0	0	0	0	0	0
3.1	-86.1287	297.474	-16.6921	0.898404	0	-0.337101	-0.349803	1.20816	-0.0677933	0	0	0	0	0	0	0	0	0
3.10833	-123.722	588.349	-13.0867	0.903926	0	-0.338485	0.0466122	-0.221659	0.00493039	0	0	0	0	0	0	0	0	0
3.11667	-145.197	914.538	-0.074333	0.898304	0	-0.337966	0.339804	-2.14029	0.000173961	0	0	0	0	0	0	0	0	0
3.125	-160.733	1153.44	15.6261	0.884982	0	-0.33711	0.55632	-3.99224	-0.0540842	0	0	0	0	0	0	0	0	0
3.13333	-188.124	1283.27	21.9516	0.865035	0	-0.337244	0.767418	-5.23487	-0.0895475	0	0	0	0	0	0	0	0	0
3.14167	-215.863	1374.32	14.4503	0.839031	0	-0.33887	0.87488	-5.57002	-0.0585662	0	0	0	0	0	0	0	0	0
3.15	-218.128	1480.36	1.98432	0.809414	0	-0.340059	0.736867	-5.00087	-0.00670332	0	0	0	0	0	0	0	0	0
3.15833	-190.756	1596.87	-4.35614	0.779131	0	-0.339154	0.440728	-3.68945	0.0100646	0	0	0	0	0	0	0	0	0
3.16667	-145.14	1690.05	-4.03068	0.749412	0	-0.337061	0.161811	-1.88418	0.00449364	0	0	0	0	0	0	0	0	0
3.175	-90.3411	1732.26	-4.52527	0.719749	0	-0.335348	-0.00587202	0.112594	-0.000294135	0	0	0	0	0	0	0	0	0
3.18333	-31.8541	1714.49	-9.4504	0.688874	0	-0.334356	-0.03689	1.98554	-0.0109444	0	0	0	0	0	0	0	0	0
3.19167	26.2601	1645.24	-14.589	0.655815	0	-0.333275	0.0548834	3.43854	-0.0304909	0	0	0	0	0	0	0	0	0
3.2	82.9688	1539.74	-14.6766	0.621234	0	-0.331504	0.229043	4.2506	-0.0405162	0	0	0	0	0	0	0	0	0
3.20833	138.39	1407.67	-9.19841	0.586752	0	-0.329617	0.426376	4.337	-0.02834	0	0	0	0	0	0	0	0	0
3.21667	186.881	1251.46	-0.869295	0.553239	0	-0.328466	0.564072	3.77735	-0.00262384	0	0	0	0	0	0	0	0	0
3.225	219.887	1072.74	7.95169	0.520924	0	-0.328057	0.571944	2.79029	0.020683	0	0	0	0	0	0	0	0	0
3.23333	232.945	878.031	15.7892	0.490162	0	-0.327717	0.439508	1.65662	0.0297902	0	0	0	0	0	0	0	0	0
3.24167	226.446	676.778	21.1079	0.460115	0	-0.326765	0.212049	0.633749	0.0197659	0	0	0	0	0	0	0	0	0
3.25	202.912	482.644	22.5645	0.428685	0	-0.324955	-0.0435956	-0.103696	-0.00484799	0	0	0	0	0	0	0	0	0
3.25833	164.496	313.369	20.0794	0.395798	0	-0.322321	-0.26111	-0.497422	-0.0318728	0	0	0	0	0	0	0	0	0
3.26667	115.957	182.538	15.1537	0.367915	0	-0.318065	-0.389825	-0.613654	-0.0509436	0	0	0	0	0	0	0	0	0
3.275	68.2632	94.2104	9.96357	0.364935	0	-0.308063	-0.426036	-0.587974	-0.0621834	0	0	0	0	0	0	0	0	0
3.28333	33.2702	43.747	6.05057	0.439455	0	-0.27807	-0.409667	-0.538671	-0.0745026	0	0	0	0	0	0	0	0	0
3.29167	13.9723	20.0091	3.72678	0.667511	0	-0.199596	-0.377167	-0.540124	-0.1006	0	0	0	0	0	0	0	0	0
3.3	5.19755	10.3411	2.52687	0.902478	0	-0.0723876	-0.316043	-0.628799	-0.153649	0	0	0	0	0	0	0	0	0
3.30833	0	0	0	0	0	0	0	0	0	0	0	0	0	0	0	0	0	0
3.31667	0	0	0	0	0	0	0	0	0	0	0	0	0	0	0	0	0	0
3.325	0	0	0	0	0	0	0	0	0	0	0	0	0	0	0	0	0	0
3.33333	0	0	0	0	0	0	0	0	0	0	0	0	0	0	0	0	0	0
3.34167	0	0	0	0	0	0	0	0	0	0	0	0	0	0	0	0	0	0
3.35	0	0	0	0	0	0	0	0	0	0	0	0	0	0	0	0	0	0
3.35833	0	0	0	0	0	0	0	0	0	0	0	0	0	0	0	0	0	0
3.36667	0	0	0	0	0	0	0	0	0	-3.57358	15.4406	-2.17803	0.727704	0	-0.21734	0.0837904	-0.362039	0.0510686
3.375	0	0	0	0	0	0	0	0	0	-14.8833	39.2812	-5.06836	0.825493	0	-0.354264	0.228181	-0.602232	0.0777047
3.38333	0	0	0	0	0	0	0	0	0	-43.4531	113.926	-7.36799	0.895076	0	-0.408846	0.401137	-1.0517	0.0680176
3.39167	0	0	0	0	0	0	0	0	0	-91.0623	290.166	-5.6516	0.92144	0	-0.420596	0.512228	-1.63219	0.0317904
3.4	0	0	0	0	0	0	0	0	0	-139.906	582.86	2.72549	0.93005	0	-0.417419	0.510828	-2.12815	-0.00995133
3.40833	0	0	0	0	0	0	0	0	0	-163.442	901.411	13.6353	0.92583	0	-0.410539	0.420253	-2.31777	-0.03506
3.41667	0	0	0	0	0	0	0	0	0	-162.512	1118.9	15.4511	0.908986	0	-0.406567	0.311596	-2.14535	-0.0296256
3.425	0	0	0	0	0	0	0	0	0	-165.767	1224.87	2.27586	0.883489	0	-0.40943	0.246713	-1.82299	-0.00338719
3.43333	0	0	0	0	0	0	0	0	0	-185.971	1301.09	-12.4805	0.857995	0	-0.416238	0.250893	-1.7553	0.0168374
3.44167	0	0	0	0	0	0	0	0	0	-206.058	1406.44	-7.37385	0.836334	0	-0.419175	0.335224	-2.28806	0.0119961
3.45	0	0	0	0	0	0	0	0	0	-199.91	1532.52	20.2331	0.812838	0	-0.416989	0.451919	-3.46442	-0.0457391
3.45833	0	0	0	0	0	0	0	0	0	-158.319	1633.79	49.2722	0.783299	0	-0.415411	0.482538	-4.97963	-0.150176
3.46667	0	0	0	0	0	0	0	0	0	-92.1666	1681.23	60.062	0.747988	0	-0.41799	0.348887	-6.36413	-0.227358
3.475	0	0	0	0	0	0	0	0	0	-16.7175	1682.48	54.9546	0.70945	0	-0.42248	0.0718915	-7.2353	-0.236326
3.48333	0	0	0	0	0	0	0	0	0	54.5953	1656.9	48.9236	0.672062	0	-0.424566	-0.244388	-7.4169	-0.219
3.49167	0	0	0	0	0	0	0	0	0	116.919	1605.26	47.6741	0.63821	0	-0.423337	-0.503093	-6.9073	-0.205137
3.5	0	0	0	0	0	0	0	0	0	174.294	1514.28	43.6745	0.605814	0	-0.42146	-0.666941	-5.79446	-0.167122
3.50833	0	0	0	0	0	0	0	0	0	226.542	1378.14	30.4668	0.571753	0	-0.420942	-0.696859	-4.23925	-0.0937182
3.51667	0	0	0	0	0	0	0	0	0	264.189	1204.51	11.8054	0.536269	0	-0.420795	-0.546983	-2.49384	-0.0244422
3.525	0	0	0	0	0	0	0	0	0	277.851	1006.15	-4.52153	0.502161	0	-0.41898	-0.235897	-0.854227	0.0038388
3.53333	0	0	0	0	0	0	0	0	0	269.436	796.106	-15.6744	0.47056	0	-0.415074	0.14575	0.430648	-0.00847895
3.54167	0	0	0	0	0	0	0	0	0	243.554	587.71	-23.5593	0.441443	0	-0.410562	0.495908	1.19665	-0.0479698
3.55	0	0	0	0	0	0	0	0	0	199.849	395.526	-29.0636	0.415673	0	-0.407673	0.702224	1.38979	-0.102123
